PathFileType	4	(X/Y/Z)	Patient4_TMGait_0pt3_02_left_24.trc.trc
DataRate	CameraRate	NumFrames	NumMarkers	Units	OrigDataRate	OrigDataStartFrame	OrigNumFrames
50.359712230216	50.359712230216	4	33	mm	50.359712230216	106	       141
Frame#	Time	Sacral			L.Shoulder			Chest			R.Shoulder			Neck			R.ASIS			L.ASIS			R.Thigh.Superior			R.Thigh.Lateral			R.Thigh.Inferior			R.Patella			L.Thigh.Superior			L.Thigh.Lateral			L.Thigh.Inferior			L.Patella			L.Shank.Superior			L.Shank.Lateral			L.Shank.Inferior			R.Shank.Superior			R.Shank.Lateral			R.Shank.Inferior			R.Heel			R.Midfoot.Superior			R.Midfoot.Lateral			R.Toe			L.Heel			L.Midfoot.Lateral			L.Midfoot.Superior			L.Toe			L.Elbow			L.Wrist			R.Elbow			R.Wrist			
		X1	Y1	Z1	X2	Y2	Z2	X3	Y3	Z3	X4	Y4	Z4	X5	Y5	Z5	X6	Y6	Z6	X7	Y7	Z7	X8	Y8	Z8	X9	Y9	Z9	X10	Y10	Z10	X11	Y11	Z11	X12	Y12	Z12	X13	Y13	Z13	X14	Y14	Z14	X15	Y15	Z15	X16	Y16	Z16	X17	Y17	Z17	X18	Y18	Z18	X19	Y19	Z19	X20	Y20	Z20	X21	Y21	Z21	X22	Y22	Z22	X23	Y23	Z23	X24	Y24	Z24	X25	Y25	Z25	X26	Y26	Z26	X27	Y27	Z27	X28	Y28	Z28	X29	Y29	Z29	X30	Y30	Z30	X31	Y31	Z31	X32	Y32	Z32	X33	Y33	Z33	

106	49.115000000000	769.694427193725	986.030803777686	552.276769763504	948.854120625594	1408.252383626064	358.848819501374	1048.440091063063	1345.172559242356	524.215373138803	965.659660520467	1422.203380135440	695.884970096782	931.580144659198	1478.428133891156	514.975116372431	1003.931770777590	923.879142913959	667.476180646408	984.070836721774	946.326455954550	393.908719785839	1055.621030818072	726.996529076606	621.503410676946	980.053678236371	607.872452447792	670.215468859565	1058.964513130780	564.638402131552	585.527777357800	1061.340117200092	466.518495922656	584.618897762162	1069.702358261069	760.969931761795	425.763544219727	1027.390964108803	635.676144572308	343.690765639809	1125.347958045077	570.181533114404	412.556002746245	1134.266851090328	479.285539685753	400.045172301066	1062.759877908870	417.928006970511	382.724139696217	918.678628467133	390.288932075069	329.345750727597	897.353895292638	256.859615856221	369.591191612995	1010.336645080063	381.474816996423	585.973288098771	920.591804549518	292.275825622587	646.862483886364	933.984407090343	195.435938443532	577.270485124595	765.591399530810	49.705771370353	550.971708102115	939.678689936954	96.638990982937	582.488721992299	850.015190707468	40.937325297545	623.322851283918	1057.668758634669	38.578334879824	610.296789780825	704.283417560570	207.693345217219	402.360726785403	754.499789512645	163.131706448988	317.573699853073	859.996224211407	156.369212026314	337.672996019006	923.020238638851	39.313312603621	297.589088224838	949.848207129812	1044.573286398241	268.368663053938	1044.964935727371	802.951380367717	271.415446821943	1004.383410716869	1073.502722531656	823.015291897563	1192.884962541165	894.492660735411	822.478032878348	
107	49.134857142857	768.379797364161	985.715621696935	555.117922991954	944.460585731324	1407.504434521719	359.398050940018	1046.718807500730	1344.849382478220	523.278654332579	966.727383048854	1422.199787413425	696.187473777822	929.850020366879	1478.067559866669	515.642184485729	1003.574932825842	923.170235462390	667.523000143665	981.001259249049	946.683425295871	394.231102364855	1053.954250230395	725.971877029335	620.925005190948	978.511223295443	607.028181586591	670.130444111728	1056.481898354585	563.682773539023	584.670791560620	1058.438554175818	465.473547613769	583.577142342746	1068.790610361570	763.745485531578	426.378144101046	1028.788437885406	637.923360836748	344.087582551539	1127.767901302295	574.099179068332	412.921248278917	1138.849704220851	483.800648351436	400.148486833876	1069.678892946081	420.805599705037	382.469923120795	926.854863579521	387.514247606608	330.041587297662	912.014266935211	253.295932085965	369.466037983347	1006.771196347502	380.600024877053	585.315477927145	916.769005768928	291.952654893037	646.692127301924	929.048205455661	195.053757992887	577.048107451416	759.649530487346	50.030144947348	551.168941988239	933.757554696837	96.645277700970	582.584426776733	844.087436091079	41.075496641202	623.483575246214	1051.693862564710	38.514199843779	610.338376793936	722.285545209602	193.023281066112	403.545535235840	774.212882531874	154.156396995815	317.127591187935	879.582576352122	153.353554365534	336.534157140851	948.849310682015	41.413668750656	292.744332643299	931.548683977751	1043.617063471803	271.190445781704	1007.393231947281	794.952021828222	276.363612877747	1018.878564114940	1075.981649336423	823.963551319869	1221.968406661869	914.237366540169	818.039494539166	
108	49.154714285714	767.185652826892	986.131681471253	557.793458377974	940.126854281211	1407.493835888408	359.831216465449	1045.126997455445	1345.120605284701	522.057991730801	968.088470045459	1422.800114059875	696.207111223178	928.277731783498	1478.317027416728	516.131423965520	1003.221164475347	922.991269488208	667.233779385569	977.900417740516	947.581951028533	394.246903666047	1051.700353353952	725.263365795144	620.147440938802	976.140860631914	606.721885646263	670.089324874079	1052.967939701036	563.033415404049	583.852753211681	1054.350977745376	464.891859656534	582.684007186791	1067.052956201055	766.475212849287	426.558742228312	1028.773390888143	640.350000222626	344.029859488719	1128.433376123948	577.815373279373	412.754770183457	1141.603027321369	488.489444544331	399.736739162056	1075.422188757571	423.814639701697	381.746760004240	934.774963686696	383.376360837282	329.976566257535	927.773596803590	248.629122065597	368.812662295978	1002.272826905283	380.193782094825	584.825142683515	912.256763551006	291.872266083768	646.669432851944	923.725786958642	194.947075202837	576.977559709399	753.676206242380	50.408042022508	551.447495715453	927.832947361909	96.679197803048	582.757657845064	838.151345000196	41.214245955099	623.695085947462	1045.706736634440	38.451639992444	610.367304823686	742.584336146376	175.657884204749	403.856501864254	796.531001557731	142.690597818591	316.184960034019	901.384889289131	148.917526314052	335.116826656398	977.814980798505	43.360572302100	288.453015907010	912.824357773355	1044.209168845364	273.575154098205	970.552043019435	790.510754070164	281.088449155625	1033.447836356023	1079.731436665315	824.432012372556	1249.470793684141	936.551315607115	812.614272885444	
109	49.174571428571	766.088232356332	987.256382035231	560.285945357667	935.882174249011	1408.202448897073	360.147277313677	1043.667571435751	1345.950572266080	520.559136473171	969.733284299424	1423.971845697252	695.931140863013	926.859134865346	1479.144372864174	516.431973560498	1002.857980960405	923.327324232519	666.630022575713	974.775297012004	948.982005049893	393.971937061243	1048.903885992575	724.877114029198	619.236341349497	972.990317023397	606.943291162235	670.124381912403	1048.512459577481	562.694557451253	583.141693799539	1049.176625094320	464.765949958577	582.009697498496	1064.544657472916	769.099703822404	426.354445119107	1027.443288844472	642.876220009450	343.532860342549	1127.439707107096	581.238442039402	412.114808106607	1142.608345007639	493.252474691802	398.884361638183	1080.000408594254	426.930063580183	380.640978327727	942.564761582545	378.162877005266	329.114961565989	944.433315595619	243.309989854134	367.680597635287	996.923750148901	380.248659245752	584.547048122155	907.102102562697	292.040210214330	646.815851227121	918.051760633094	195.119448620205	577.073610639760	747.678895374692	50.857263247496	551.802906718837	921.913738714904	96.735212377788	582.997632661037	832.211013347487	41.363817308005	623.954121828546	1039.711944245398	38.386533172575	610.385519904382	764.998826939213	156.715742792187	403.207151142682	821.188372130178	129.573252605365	314.770741535809	925.026107891333	143.548708012590	333.532090537875	1009.118155581935	45.278632968651	285.069659759495	893.918151394564	1046.358125120868	275.517775769950	934.980620140460	789.357464046271	285.513384673835	1048.050533913427	1084.711507860416	824.411963300208	1275.115980877459	961.090846579753	806.299549418959	
